<svg width="24" height="24" viewBox="0 0 24 24" fill="none" xmlns="http://www.w3.org/2000/svg">
<g opacity="0.8">
<path d="M11.8515 13.2513C8.53341 13.3088 6.01982 15.3058 4.98164 18.1129C4.57284 19.2182 5.51749 20.25 6.696 20.25H11.4992M11.8515 13.2513C11.9006 13.2504 11.9498 13.25 11.9992 13.25C12.3513 13.25 12.6945 13.2717 13.0282 13.3138M11.8515 13.2513C11.2014 13.2626 10.5826 13.3483 9.99926 13.5M13.0282 13.3138C13.3618 13.3559 13.6859 13.4184 13.9996 13.5M13.0282 13.3138C13.7301 13.4024 14.3895 13.5812 14.9992 13.838M14.7492 18.6L16.9492 20.25L20.2492 14.75M15.7492 6.5C15.7492 8.57107 14.0702 10.25 11.9992 10.25C9.9281 10.25 8.24917 8.57107 8.24917 6.5C8.24917 4.42893 9.9281 2.75 11.9992 2.75C14.0702 2.75 15.7492 4.42893 15.7492 6.5Z" stroke="#F8F8F8" stroke-opacity="0.5" stroke-width="1.5" stroke-linecap="round" stroke-linejoin="round"/>
</g>
</svg>
