<svg width="24" height="24" viewBox="0 0 24 24" fill="none" xmlns="http://www.w3.org/2000/svg">
<g opacity="0.8">
<path d="M2.25 10.75L5.11875 6.16C5.66696 5.28286 6.62837 4.75 7.66274 4.75H16.3373C17.3716 4.75 18.333 5.28286 18.8813 6.16L21.75 10.75M2.25 10.75H0.75M2.25 10.75V17.5C2.25 18.4665 3.0335 19.25 4 19.25C4.9665 19.25 5.75 18.4665 5.75 17.5V17.1786H18.25V17.5C18.25 18.4665 19.0335 19.25 20 19.25C20.9665 19.25 21.75 18.4665 21.75 17.5V10.75M21.75 10.75H23.25M5.75 13.0357H7.75M16.25 13.0357H18.25" stroke="#F8F8F8" stroke-opacity="0.5" stroke-width="1.5" stroke-linecap="round" stroke-linejoin="round"/>
</g>
</svg>
