<svg width="24" height="24" viewBox="0 0 24 24" fill="none" xmlns="http://www.w3.org/2000/svg">
<g opacity="0.8">
<path d="M12 21.2515C16.2802 21.2515 19.75 17.5014 19.75 13.0015C19.75 7.83445 15.1368 4.17261 13.2786 2.90725C12.853 2.61738 12.2906 2.74281 11.9942 3.16398L9.58196 6.59224C9.22547 7.09889 8.49654 7.16059 8.05707 6.72396C7.66693 6.33633 7.03099 6.33214 6.68083 6.75624C5.06028 8.71901 4.25 11.1628 4.25 13.0015C4.25 17.5014 7.71979 21.2515 12 21.2515ZM12 21.2515C13.6569 21.2515 15 19.7183 15 17.8271C15 15.7439 13.3369 14.2262 12.4872 13.5868C12.1953 13.3671 11.8047 13.3671 11.5128 13.5868C10.6631 14.2262 9 15.7439 9 17.8271C9 19.7183 10.3431 21.2515 12 21.2515Z" stroke="#F8F8F8" stroke-opacity="0.5" stroke-width="1.5" stroke-linejoin="round"/>
</g>
</svg>
