<svg width="24" height="24" viewBox="0 0 24 24" fill="none" xmlns="http://www.w3.org/2000/svg">
<path d="M8.96046 3.73767L9.43539 4.31813L8.96046 3.73767ZM11.1874 2.2391L11.3906 2.96106L11.1874 2.2391ZM15.0395 3.73767L15.5145 3.1572H15.5145L15.0395 3.73767ZM12.8126 2.2391L12.6094 2.96106L12.8126 2.2391ZM5.38803 19.9238L5.04754 20.592L5.38803 19.9238ZM3.75 15.4508H4.5H3.75ZM4.07698 18.6127L3.40873 18.9532L4.07698 18.6127ZM19.923 18.6127L20.5913 18.9532L19.923 18.6127ZM18.612 19.9238L18.9525 20.592L18.612 19.9238ZM20.1449 8.63517L19.4212 8.83198L20.1449 8.63517ZM18.4895 6.5604L18.0146 7.14086L18.0146 7.14086L18.4895 6.5604ZM19.6924 7.68041L19.0818 8.11591L19.6924 7.68041ZM3.75 10.2754H3H3.75ZM3.85513 8.63517L4.57885 8.83198L3.85513 8.63517ZM5.51046 6.5604L5.98539 7.14086L5.51046 6.5604ZM4.30757 7.68041L4.91818 8.11591L4.30757 7.68041ZM7.75 15.5008C7.33579 15.5008 7 15.8366 7 16.2508C7 16.665 7.33579 17.0008 7.75 17.0008V16.2508V15.5008ZM16.25 17.0008C16.6642 17.0008 17 16.665 17 16.2508C17 15.8366 16.6642 15.5008 16.25 15.5008V16.2508V17.0008ZM20.25 10.2754H19.5V15.4508H20.25H21V10.2754H20.25ZM15.45 20.2508V19.5008H8.55V20.2508V21.0008H15.45V20.2508ZM3.75 15.4508H4.5V10.2754H3.75H3V15.4508H3.75ZM5.51046 6.5604L5.98539 7.14086L9.43539 4.31813L8.96046 3.73767L8.48553 3.1572L5.03553 5.97993L5.51046 6.5604ZM15.0395 3.73767L14.5646 4.31814L18.0146 7.14086L18.4895 6.5604L18.9645 5.97993L15.5145 3.1572L15.0395 3.73767ZM8.96046 3.73767L9.43539 4.31813C9.98538 3.86815 10.3667 3.55678 10.6847 3.33376C10.9949 3.11617 11.2023 3.01403 11.3906 2.96106L11.1874 2.2391L10.9843 1.51714C10.5699 1.63374 10.2052 1.83788 9.82339 2.10568C9.44929 2.36805 9.01843 2.72119 8.48553 3.1572L8.96046 3.73767ZM15.0395 3.73767L15.5145 3.1572C14.9816 2.72119 14.5507 2.36805 14.1766 2.10568C13.7948 1.83788 13.4301 1.63374 13.0157 1.51714L12.8126 2.2391L12.6094 2.96106C12.7977 3.01403 13.0051 3.11617 13.3153 3.33376C13.6333 3.55678 14.0146 3.86815 14.5646 4.31814L15.0395 3.73767ZM11.1874 2.2391L11.3906 2.96106C11.7891 2.84892 12.2109 2.84892 12.6094 2.96106L12.8126 2.2391L13.0157 1.51714C12.3515 1.33022 11.6485 1.33022 10.9843 1.51714L11.1874 2.2391ZM8.55 20.2508V19.5008C7.69755 19.5008 7.10331 19.5002 6.64068 19.4624C6.1868 19.4253 5.92604 19.3562 5.72852 19.2555L5.38803 19.9238L5.04754 20.592C5.49175 20.8184 5.97189 20.9127 6.51853 20.9574C7.05641 21.0014 7.7223 21.0008 8.55 21.0008V20.2508ZM3.75 15.4508H3C3 16.2785 2.99942 16.9444 3.04336 17.4822C3.08803 18.0289 3.18238 18.509 3.40873 18.9532L4.07698 18.6127L4.74524 18.2722C4.6446 18.0747 4.57546 17.814 4.53838 17.3601C4.50058 16.8975 4.5 16.3032 4.5 15.4508H3.75ZM5.38803 19.9238L5.72852 19.2555C5.30516 19.0398 4.96095 18.6956 4.74524 18.2722L4.07698 18.6127L3.40873 18.9532C3.76825 19.6588 4.34193 20.2325 5.04754 20.592L5.38803 19.9238ZM20.25 15.4508H19.5C19.5 16.3032 19.4994 16.8975 19.4616 17.3601C19.4245 17.814 19.3554 18.0747 19.2548 18.2722L19.923 18.6127L20.5913 18.9532C20.8176 18.509 20.912 18.0289 20.9566 17.4822C21.0006 16.9444 21 16.2785 21 15.4508H20.25ZM15.45 20.2508V21.0008C16.2777 21.0008 16.9436 21.0014 17.4815 20.9574C18.0281 20.9127 18.5082 20.8184 18.9525 20.592L18.612 19.9238L18.2715 19.2555C18.074 19.3562 17.8132 19.4253 17.3593 19.4624C16.8967 19.5002 16.3025 19.5008 15.45 19.5008V20.2508ZM19.923 18.6127L19.2548 18.2722C19.039 18.6956 18.6948 19.0398 18.2715 19.2555L18.612 19.9238L18.9525 20.592C19.6581 20.2325 20.2317 19.6588 20.5913 18.9532L19.923 18.6127ZM20.25 10.2754H21C21 9.48074 21.0062 8.94425 20.8686 8.43837L20.1449 8.63517L19.4212 8.83198C19.4938 9.09929 19.5 9.39855 19.5 10.2754H20.25ZM18.4895 6.5604L18.0146 7.14086C18.6932 7.69611 18.921 7.89038 19.0818 8.11591L19.6924 7.68041L20.303 7.24491C19.9986 6.81809 19.5795 6.48313 18.9645 5.97993L18.4895 6.5604ZM20.1449 8.63517L20.8686 8.43837C20.7522 8.01022 20.5607 7.60614 20.303 7.24491L19.6924 7.68041L19.0818 8.11591C19.2364 8.33265 19.3513 8.5751 19.4212 8.83198L20.1449 8.63517ZM3.75 10.2754H4.5C4.5 9.39855 4.50616 9.09929 4.57885 8.83198L3.85513 8.63517L3.13141 8.43837C2.99384 8.94425 3 9.48073 3 10.2754H3.75ZM5.51046 6.5604L5.03553 5.97993C4.4205 6.48313 4.00139 6.81809 3.69697 7.24491L4.30757 7.68041L4.91818 8.11591C5.07903 7.89038 5.30675 7.69611 5.98539 7.14086L5.51046 6.5604ZM3.85513 8.63517L4.57885 8.83198C4.64871 8.5751 4.7636 8.33265 4.91818 8.11591L4.30757 7.68041L3.69697 7.24491C3.43933 7.60614 3.24784 8.01022 3.13141 8.43837L3.85513 8.63517ZM7.75 16.2508V17.0008H16.25V16.2508V15.5008H7.75V16.2508Z" fill="#F8F8F8" fill-opacity="0.7"/>
</svg>
