<svg width="24" height="24" viewBox="0 0 24 24" fill="none" xmlns="http://www.w3.org/2000/svg">
<g opacity="0.8">
<path d="M5.87868 14.1213L6.40901 14.6517H6.40901L5.87868 14.1213ZM6.75 3.75V4.5H17.25V3.75V3H6.75V3.75ZM20.25 6.75H19.5V17.25H20.25H21V6.75H20.25ZM3.75 16.25L4.28033 16.7803L6.40901 14.6517L5.87868 14.1213L5.34835 13.591L3.21967 15.7197L3.75 16.25ZM3.75 17.25H4.5V16.25H3.75H3V17.25H3.75ZM3.75 16.25H4.5V6.75H3.75H3V16.25H3.75ZM10.1213 14.1213L9.59099 14.6517L15.7197 20.7803L16.25 20.25L16.7803 19.7197L10.6517 13.591L10.1213 14.1213ZM17.25 20.25V19.5H16.25V20.25V21H17.25V20.25ZM16.25 20.25V19.5H6.75V20.25V21H16.25V20.25ZM5.87868 14.1213L6.40901 14.6517C7.28769 13.773 8.71231 13.773 9.59099 14.6517L10.1213 14.1213L10.6517 13.591C9.18718 12.1265 6.81282 12.1265 5.34835 13.591L5.87868 14.1213ZM3.75 17.25H3C3 19.3211 4.67893 21 6.75 21V20.25V19.5C5.50736 19.5 4.5 18.4926 4.5 17.25H3.75ZM20.25 17.25H19.5C19.5 18.4926 18.4926 19.5 17.25 19.5V20.25V21C19.3211 21 21 19.3211 21 17.25H20.25ZM17.25 3.75V4.5C18.4926 4.5 19.5 5.50736 19.5 6.75H20.25H21C21 4.67893 19.3211 3 17.25 3V3.75ZM6.75 3.75V3C4.67893 3 3 4.67893 3 6.75H3.75H4.5C4.5 5.50736 5.50736 4.5 6.75 4.5V3.75ZM16.5 9.5H15.75C15.75 10.1904 15.1904 10.75 14.5 10.75V11.5V12.25C16.0188 12.25 17.25 11.0188 17.25 9.5H16.5ZM14.5 11.5V10.75C13.8096 10.75 13.25 10.1904 13.25 9.5H12.5H11.75C11.75 11.0188 12.9812 12.25 14.5 12.25V11.5ZM12.5 9.5H13.25C13.25 8.80964 13.8096 8.25 14.5 8.25V7.5V6.75C12.9812 6.75 11.75 7.98122 11.75 9.5H12.5ZM14.5 7.5V8.25C15.1904 8.25 15.75 8.80964 15.75 9.5H16.5H17.25C17.25 7.98122 16.0188 6.75 14.5 6.75V7.5Z" fill="#F8F8F8" fill-opacity="0.5"/>
</g>
</svg>
