<svg width="24" height="24" viewBox="0 0 24 24" fill="none" xmlns="http://www.w3.org/2000/svg">
<g opacity="0.8">
<path d="M15.3969 17.4573C16.3935 17.1726 17.1726 16.3935 17.4573 15.3969L20.2577 5.59556C20.581 4.46403 19.5349 3.4179 18.4033 3.74119L8.60199 6.54158C7.60536 6.82633 6.82633 7.60536 6.54158 8.60199L3.74119 18.4033C3.4179 19.5349 4.46403 20.581 5.59556 20.2577L15.3969 17.4573Z" stroke="#F8F8F8" stroke-opacity="0.5" stroke-width="1.5" stroke-linejoin="round"/>
<path d="M13.9994 11.9994C13.9994 13.104 13.104 13.9994 11.9994 13.9994C10.8949 13.9994 9.99945 13.104 9.99945 11.9994C9.99945 10.8949 10.8949 9.99944 11.9994 9.99944C13.104 9.99944 13.9994 10.8949 13.9994 11.9994Z" stroke="#F8F8F8" stroke-opacity="0.5" stroke-width="1.5" stroke-linejoin="round"/>
</g>
</svg>
