<svg width="24" height="24" viewBox="0 0 24 24" fill="none" xmlns="http://www.w3.org/2000/svg">
<g opacity="0.8">
<path d="M16.75 19.25H18.25C19.9069 19.25 21.25 17.9069 21.25 16.25V13.9643C21.25 12.3074 19.9069 10.9643 18.25 10.9643H17.75V4.75C17.75 4.75 13.75 6.30357 13.75 10.9643V16.2503C13.75 17.9071 15.0931 19.25 16.75 19.25Z" stroke="#F8F8F8" stroke-opacity="0.5" stroke-width="1.5" stroke-linejoin="round"/>
<path d="M5.75 19.25L7.25 19.25C8.90685 19.25 10.25 17.9069 10.25 16.25V13.9643C10.25 12.3074 8.90685 10.9643 7.25 10.9643H6.75V4.75C6.75 4.75 2.75 6.30357 2.75 10.9643V16.2503C2.75 17.9071 4.09315 19.25 5.75 19.25Z" stroke="#F8F8F8" stroke-opacity="0.5" stroke-width="1.5" stroke-linejoin="round"/>
</g>
</svg>
