<svg width="24" height="24" viewBox="0 0 24 24" fill="none" xmlns="http://www.w3.org/2000/svg">
<path d="M2.00797 18.6457C2.52996 18.6457 2.82695 18.3937 3.01594 17.8087L3.99691 15.0188H8.96477L9.95475 17.8177C10.1347 18.3937 10.4317 18.6457 10.9717 18.6457C11.5567 18.6457 11.9797 18.2587 11.9797 17.7277C11.9797 17.5567 11.9437 17.3858 11.8537 17.1338L7.8938 6.41506C7.62381 5.69508 7.19182 5.37109 6.48984 5.37109C5.77886 5.37109 5.33788 5.70408 5.07688 6.42406L1.126 17.1338C1.036 17.3768 1 17.5747 1 17.7277C1 18.2767 1.40499 18.6457 2.00797 18.6457ZM4.5099 13.3719L6.44485 7.67503H6.49884L8.45179 13.3719H4.5099Z" fill="#F8F8F8" fill-opacity="0.7"/>
<path d="M17.1041 18.6637C18.3371 18.6637 19.5431 17.9977 20.0921 16.9448H20.1371V17.7457C20.1551 18.3217 20.524 18.6727 21.064 18.6727C21.613 18.6727 22 18.3037 22 17.6917V11.9769C22 10.078 20.533 8.86299 18.2381 8.86299C16.5372 8.86299 15.1062 9.54697 14.6112 10.6179C14.4942 10.8339 14.4402 11.0499 14.4402 11.2479C14.4402 11.7339 14.7912 12.0579 15.2772 12.0579C15.6192 12.0579 15.8712 11.9319 16.0692 11.6439C16.6092 10.7799 17.2301 10.4469 18.1661 10.4469C19.3541 10.4469 20.0651 11.0769 20.0651 12.1299V12.8589L17.4641 13.0119C15.2232 13.1379 13.9452 14.1548 13.9452 15.8108C13.9452 17.5117 15.2502 18.6637 17.1041 18.6637ZM17.6351 17.1248C16.6002 17.1248 15.9072 16.5848 15.9072 15.7568C15.9072 14.9468 16.5642 14.4338 17.7251 14.3528L20.0651 14.2088V14.9558C20.0651 16.1888 18.9941 17.1248 17.6351 17.1248Z" fill="#F8F8F8" fill-opacity="0.7"/>
</svg>
