<svg width="24" height="24" viewBox="0 0 24 24" fill="none" xmlns="http://www.w3.org/2000/svg">
<g opacity="0.8">
<path d="M2.79055 12.1065C1.4706 12.8191 0.744814 13.4631 0.86677 13.9182C1.16059 15.0148 6.26396 14.6001 12.2655 12.992C18.2669 11.3839 22.8939 9.19135 22.6001 8.09478C22.4781 7.63963 21.5276 7.44484 20.0282 7.48768M2.79055 12.1065C2.80163 12.8585 2.90491 13.6216 3.10854 14.3816C4.43075 19.3161 9.48321 22.2498 14.3935 20.9341C19.3038 19.6183 22.2126 14.5515 20.8904 9.61694C20.6867 8.85699 20.3946 8.1445 20.0282 7.48768M2.79055 12.1065C2.72972 7.97532 5.45127 4.17752 9.60537 3.06444C13.7595 1.95135 18.0153 3.87956 20.0282 7.48768" stroke="#F8F8F8" stroke-opacity="0.5" stroke-width="1.5"/>
</g>
</svg>
