<svg width="19" height="21" viewBox="0 0 19 21" fill="none" xmlns="http://www.w3.org/2000/svg">
<g filter="url(#filter0_d_436_46998)">
<path d="M13.714 6.54638C13.714 6.69513 13.7884 6.132 14.0221 5.76013C14.1123 5.49242 14.3051 5.27151 14.5582 5.14598C14.6835 5.08382 14.8198 5.04695 14.9594 5.03747C15.0989 5.028 15.239 5.04611 15.3715 5.09076C15.5041 5.1354 15.6265 5.20572 15.7319 5.2977C15.8373 5.38968 15.9235 5.50151 15.9857 5.62681C16.0478 5.75211 16.0847 5.88842 16.0942 6.02797C16.1036 6.16752 16.0855 6.30757 16.0409 6.44013C16.0409 7.14138 16.0409 7.1095 16.0409 7.577C16.0409 8.0445 16.0409 8.44826 16.0409 8.85201C16 9.47355 15.9148 10.0914 15.7859 10.7008C15.615 11.2172 15.3794 11.7098 15.0846 12.167C14.5681 12.7442 14.1418 13.3961 13.8203 14.1008C13.7367 14.4484 13.7009 14.8059 13.714 15.1633C13.7144 15.4932 13.7573 15.8217 13.8415 16.1408C13.4072 16.1886 12.9689 16.1886 12.5346 16.1408C12.1203 16.077 11.5996 15.2483 11.4721 14.9933C11.4398 14.9232 11.3881 14.8639 11.3231 14.8224C11.2582 14.7808 11.1827 14.7588 11.1056 14.7588C11.0285 14.7588 10.953 14.7808 10.888 14.8224C10.823 14.8639 10.7713 14.9232 10.739 14.9933C10.5053 15.397 9.99525 16.1301 9.62338 16.1726C8.92213 16.2576 7.44526 16.1726 6.29776 16.1726C6.29776 16.1726 6.48901 15.1101 6.05338 14.7276C5.61776 14.3451 5.17151 13.8989 4.83151 13.6014L3.94963 12.6239C3.32895 12.0456 2.87409 11.312 2.63213 10.4989C2.40901 9.50013 2.43026 9.01138 2.63213 8.61825C2.8553 8.29166 3.19265 8.06045 3.57776 7.97013C3.88647 7.91572 4.20381 7.93761 4.50213 8.03388C4.71066 8.12118 4.89089 8.26462 5.02276 8.44825C5.26713 8.77763 5.34151 8.937 5.25651 8.57575C5.17151 8.2145 5.04401 7.68325 4.82088 6.92888C4.64026 6.3445 4.45963 6.01513 4.32151 5.622C4.18338 5.22888 4.00276 4.85701 3.79026 4.36826C3.59776 3.8692 3.43805 3.35811 3.31213 2.83825C3.26401 2.62415 3.26283 2.40218 3.30869 2.18758C3.35454 1.97299 3.44634 1.77086 3.57776 1.59513C3.76452 1.41137 3.99652 1.28021 4.25026 1.21491C4.504 1.14961 4.77048 1.15249 5.02276 1.22326C5.42368 1.39699 5.7613 1.69009 5.98963 2.06263C6.30731 2.57649 6.56404 3.12561 6.75463 3.69888C7.10486 4.61103 7.35426 5.55874 7.49838 6.52513C7.47244 5.9549 7.51885 5.38369 7.63651 4.82513C7.69548 4.65554 7.79207 4.50149 7.91903 4.37453C8.04599 4.24757 8.20004 4.15098 8.36963 4.092C8.68529 3.99082 9.02101 3.96893 9.34713 4.02826C9.67227 4.10049 9.9596 4.28952 10.1546 4.55951C10.3985 5.18049 10.5385 5.83741 10.569 6.50388C10.5999 5.93433 10.6998 5.37063 10.8665 4.82513C11.0447 4.5756 11.3037 4.3954 11.5996 4.31513C11.9509 4.2516 12.3108 4.2516 12.6621 4.31513C12.9496 4.41261 13.2012 4.59395 13.3846 4.83576C13.6093 5.39935 13.7455 5.99429 13.7884 6.5995" fill="white"/>
<path d="M13.714 6.54638C13.714 6.69513 13.7884 6.132 14.0221 5.76013C14.1123 5.49242 14.3051 5.27151 14.5582 5.14598C14.6835 5.08382 14.8198 5.04695 14.9594 5.03747C15.0989 5.028 15.239 5.04611 15.3715 5.09076C15.5041 5.1354 15.6265 5.20572 15.7319 5.2977C15.8373 5.38968 15.9235 5.50151 15.9857 5.62681C16.0478 5.75211 16.0847 5.88842 16.0942 6.02797C16.1036 6.16752 16.0855 6.30757 16.0409 6.44013C16.0409 7.14138 16.0409 7.1095 16.0409 7.577C16.0409 8.0445 16.0409 8.44826 16.0409 8.85201C16 9.47355 15.9148 10.0914 15.7859 10.7008C15.615 11.2172 15.3794 11.7098 15.0846 12.167C14.5681 12.7442 14.1418 13.3961 13.8203 14.1008C13.7367 14.4484 13.7009 14.8059 13.714 15.1633C13.7144 15.4932 13.7573 15.8217 13.8415 16.1408C13.4072 16.1886 12.9689 16.1886 12.5346 16.1408C12.1203 16.077 11.5996 15.2483 11.4721 14.9933C11.4398 14.9232 11.3881 14.8639 11.3231 14.8224C11.2582 14.7808 11.1827 14.7588 11.1056 14.7588C11.0285 14.7588 10.953 14.7808 10.888 14.8224C10.823 14.8639 10.7713 14.9232 10.739 14.9933C10.5053 15.397 9.99526 16.1301 9.62338 16.1726C8.92213 16.2576 7.44526 16.1726 6.29776 16.1726C6.29776 16.1726 6.48901 15.1101 6.05338 14.7276C5.61776 14.3451 5.17151 13.8989 4.83151 13.6014L3.94963 12.6239C3.32895 12.0456 2.87409 11.312 2.63213 10.4989C2.40901 9.50013 2.43026 9.01138 2.63213 8.61825C2.8553 8.29166 3.19265 8.06045 3.57776 7.97013C3.88647 7.91572 4.20381 7.93761 4.50213 8.03388C4.71066 8.12118 4.89089 8.26462 5.02276 8.44825C5.26713 8.77763 5.34151 8.937 5.25651 8.57575C5.17151 8.2145 5.04401 7.68325 4.82088 6.92888C4.64026 6.3445 4.45963 6.01513 4.32151 5.62201C4.18338 5.22888 4.00276 4.85701 3.79026 4.36826C3.59776 3.8692 3.43805 3.35811 3.31213 2.83825C3.26401 2.62415 3.26283 2.40218 3.30869 2.18758C3.35454 1.97299 3.44634 1.77086 3.57776 1.59513C3.76452 1.41137 3.99652 1.28021 4.25026 1.21491C4.504 1.14961 4.77048 1.15249 5.02276 1.22326C5.42368 1.39699 5.7613 1.69009 5.98963 2.06263C6.30731 2.57649 6.56404 3.12561 6.75463 3.69888C7.10486 4.61103 7.35426 5.55874 7.49838 6.52513C7.47244 5.9549 7.51885 5.38369 7.63651 4.82513C7.69548 4.65554 7.79207 4.50149 7.91903 4.37453C8.04599 4.24757 8.20004 4.15098 8.36963 4.092C8.68529 3.99082 9.02101 3.96893 9.34713 4.02826C9.67227 4.10049 9.9596 4.28952 10.1546 4.55951C10.3985 5.18049 10.5385 5.83741 10.569 6.50388C10.5999 5.93433 10.6998 5.37063 10.8665 4.82513C11.0447 4.5756 11.3037 4.3954 11.5996 4.31513C11.9509 4.2516 12.3108 4.2516 12.6621 4.31513C12.9496 4.41261 13.2012 4.59395 13.3846 4.83576C13.5787 5.38647 13.6897 5.96299 13.714 6.54638V6.54638Z" stroke="#121212" stroke-width="0.75" stroke-linejoin="round"/>
<path d="M12.6836 13.0063V9.33008" stroke="#121212" stroke-width="0.75" stroke-linecap="round"/>
<path d="M10.538 13.0169L10.5273 9.33008" stroke="#121212" stroke-width="0.75" stroke-linecap="round"/>
<path d="M8.42188 9.36133L8.44312 12.9951" stroke="#121212" stroke-width="0.75" stroke-linecap="round"/>
</g>
<defs>
<filter id="filter0_d_436_46998" x="0.0976562" y="0.792969" width="18.373" height="19.793" filterUnits="userSpaceOnUse" color-interpolation-filters="sRGB">
<feFlood flood-opacity="0" result="BackgroundImageFix"/>
<feColorMatrix in="SourceAlpha" type="matrix" values="0 0 0 0 0 0 0 0 0 0 0 0 0 0 0 0 0 0 127 0" result="hardAlpha"/>
<feOffset dy="2"/>
<feGaussianBlur stdDeviation="1"/>
<feColorMatrix type="matrix" values="0 0 0 0 0 0 0 0 0 0 0 0 0 0 0 0 0 0 0.25 0"/>
<feBlend mode="normal" in2="BackgroundImageFix" result="effect1_dropShadow_436_46998"/>
<feBlend mode="normal" in="SourceGraphic" in2="effect1_dropShadow_436_46998" result="shape"/>
</filter>
</defs>
</svg>
